<?xml version="1.0" encoding="utf-8"?>
<!-- Generator: Adobe Illustrator 26.0.1, SVG Export Plug-In . SVG Version: 6.00 Build 0)  -->
<svg version="1.1" id="Capa_1" xmlns="http://www.w3.org/2000/svg" xmlns:xlink="http://www.w3.org/1999/xlink" x="0px" y="0px"
	 viewBox="0 0 48 48" style="enable-background:new 0 0 48 48;" xml:space="preserve">
<style type="text/css">
	.st0{fill:none;stroke:#000000;stroke-width:5;stroke-linecap:round;stroke-linejoin:round;stroke-miterlimit:10;}
	.st1{fill:none;stroke:#000000;stroke-width:4;stroke-linecap:round;stroke-linejoin:round;stroke-miterlimit:10;}
</style>
<g>
	<g>
		<path d="M53.7,37.8L83.3,2.5c0.8-1,2.2-1.1,3.2-0.3l0.3,0.3c1,0.8,1.1,2.2,0.3,3.2L57.4,41c-0.8,1-2.2,1.1-3.2,0.3L54,41
			C53,40.2,52.9,38.8,53.7,37.8z"/>
	</g>
	<g>
		<path d="M83.3,41L53.7,5.7c-0.8-1-0.7-2.4,0.3-3.2l0.3-0.3c1-0.8,2.4-0.7,3.2,0.3L87,37.8c0.8,1,0.7,2.4-0.3,3.2l-0.3,0.3
			C85.5,42.1,84.1,41.9,83.3,41z"/>
	</g>
</g>
<g>
	<g>
		<path d="M-3.7,13.5h-41.1c-1.4,0-2.6-1.2-2.6-2.6l0,0c0-1.4,1.2-2.6,2.6-2.6h41.1c1.4,0,2.6,1.2,2.6,2.6l0,0
			C-1.1,12.3-2.3,13.5-3.7,13.5z"/>
	</g>
	<g>
		<path d="M-3.7,25.8h-41.1c-1.4,0-2.6-1.2-2.6-2.6l0,0c0-1.4,1.2-2.6,2.6-2.6h41.1c1.4,0,2.6,1.2,2.6,2.6l0,0
			C-1.1,24.6-2.3,25.8-3.7,25.8z"/>
	</g>
	<g>
		<path d="M-3.7,38.1h-41.1c-1.4,0-2.6-1.2-2.6-2.6l0,0c0-1.4,1.2-2.6,2.6-2.6h41.1c1.4,0,2.6,1.2,2.6,2.6l0,0
			C-1.1,36.9-2.3,38.1-3.7,38.1z"/>
	</g>
</g>
<polyline class="st0" points="109.6,8.9 91.4,27.1 109.6,45.3 "/>
<g>
	<circle cx="24.5" cy="23.2" r="7.5"/>
	<line class="st1" x1="24.5" y1="8" x2="24.5" y2="13.4"/>
	<line class="st1" x1="24.5" y1="8" x2="24.5" y2="13.4"/>
	<line class="st1" x1="13.6" y1="12.5" x2="17.4" y2="16.3"/>
	<line class="st1" x1="31.4" y1="30.3" x2="35.2" y2="34.1"/>
	<line class="st1" x1="35.4" y1="12.5" x2="31.6" y2="16.3"/>
	<line class="st1" x1="17.5" y1="30.4" x2="13.7" y2="34.3"/>
	<line class="st1" x1="24.5" y1="33" x2="24.5" y2="38.4"/>
	<line class="st1" x1="9" y1="23.2" x2="14.5" y2="23.2"/>
	<line class="st1" x1="34.5" y1="23.2" x2="40" y2="23.2"/>
</g>
<path d="M65.1,45.5c2.3,2.7,3.7,6.2,3.7,10c0,8.6-7,15.6-15.6,15.6c-1.8,0-3.6-0.3-5.3-0.9c2.9,3.4,7.1,5.5,11.9,5.5
	c8.6,0,15.6-7,15.6-15.6C75.4,53.4,71.1,47.6,65.1,45.5z"/>
</svg>
